<?xml version="1.0" encoding="utf-8"?>
<!-- Generator: Adobe Illustrator 23.0.2, SVG Export Plug-In . SVG Version: 6.00 Build 0)  -->
<svg version="1.1" id="图层_1" xmlns="http://www.w3.org/2000/svg" xmlns:xlink="http://www.w3.org/1999/xlink" x="0px" y="0px"
	 viewBox="0 0 595.28 841.89" style="enable-background:new 0 0 595.28 841.89;" xml:space="preserve">
<style type="text/css">
	.st0{fill:#166BA9;}
	.st1{fill:#ffffff;}
	.st2{font-family:'MicrosoftYaHeiUI';}
	.st3{font-size:55.2929px;}
	.st4{letter-spacing:1;}
	.st5{font-size:36.8804px;}
	.st6{letter-spacing:-1;}
</style>
<path class="st0" d="M262.39,291.36c10.26,9.88,7.98,28.69,3.23,51.1c-4.75,22.42,24.32,23.18,36.85,8.55
	c12.54-14.63,30.4-37.61,26.41-66.3c-3.98-28.6-29.17-25.28-41.34-21.97c-22.18,7.76-42.01,20.51-58.13,36.93
	C230.7,298.66,252.44,281.78,262.39,291.36z"/>
<path class="st0" d="M473.45,337.38c4.66,13.73,12.48,45.36,4.88,88.45c-10.33,58.56-32.09,76.81-27.96,78.76
	c0.92,0.43,2.43-0.2,4.23-1.44c21.98-26.32,35.21-60.2,35.21-97.17C489.81,381.29,483.91,357.98,473.45,337.38z"/>
<path class="st0" d="M392.42,270.45c-8.87-8.93-23.71-12.67-27.34-13.48c-9.01-1.77-18.2-2.7-28.04-2.7
	c-8.16,0-16.16,0.65-23.96,1.89c9.9,1.94,28.62,8.44,35.74,30.1c9.88,30.07-1.43,74.73-11.78,100.93s-21.94,45.31-12.06,55.62
	c9.88,10.31,45.53-10.95,67-54.55C409.48,352.74,421.22,299.93,392.42,270.45z"/>
<path class="st0" d="M454.3,309.85c-14.95-18.22-34.04-32.91-55.86-42.59c11.7,9.2,33.69,32.39,32.37,76.11
	c-1.79,59.39-20.59,106.1-50.09,153.35s19.5,18.04,33.96,1.94c9.32-10.38,49.2-53.26,54.83-110.14c2.43-24.53,0.13-42.08-3.51-54.81
	C463.07,324.42,458.53,316.21,454.3,309.85z"/>
<text transform="matrix(1 0 0 1 132.4463 514.1611)" class="st1 st2 st3 st4">东方至远</text>
<text transform="matrix(1 0 0 1 132.4463 570.2188)" class="st1 st2 st5 st6">Vastitude Technology</text>
</svg>
